<?xml version="1.0" encoding="UTF-8"?>
<svg xmlns="http://www.w3.org/2000/svg" xmlns:xlink="http://www.w3.org/1999/xlink" width="150pt" height="150pt" viewBox="0 0 150 150" version="1.1">
<g id="surface1">
<path style=" stroke:none;fill-rule:nonzero;fill:rgb(0%,0%,0%);fill-opacity:1;" d="M 118.25 100.8125 C 116.808594 99.976562 115.09375 99.753906 113.488281 100.1875 C 111.878906 100.621094 110.511719 101.679688 109.6875 103.125 C 101.886719 116.636719 87.476562 124.972656 71.875 125 L 36.9375 125 L 40.9375 121.0625 C 43.359375 118.625 43.359375 114.6875 40.9375 112.25 C 29.070312 100.449219 24.976562 82.914062 30.386719 67.078125 C 35.796875 51.242188 49.769531 39.882812 66.375 37.8125 C 69.828125 37.398438 72.289062 34.265625 71.875 30.8125 C 71.460938 27.359375 68.328125 24.898438 64.875 25.3125 C 44.628906 27.816406 27.324219 41.089844 19.65625 59.992188 C 11.988281 78.898438 15.15625 100.472656 27.9375 116.375 L 17.4375 126.8125 C 15.664062 128.609375 15.144531 131.296875 16.125 133.625 C 17.082031 135.957031 19.351562 137.488281 21.875 137.5 L 71.875 137.5 C 91.960938 137.492188 110.519531 126.769531 120.5625 109.375 C 121.398438 107.933594 121.621094 106.21875 121.1875 104.613281 C 120.753906 103.003906 119.695312 101.636719 118.25 100.8125 Z M 121.875 38.625 L 121.875 31.25 C 121.875 20.894531 113.480469 12.5 103.125 12.5 C 92.769531 12.5 84.375 20.894531 84.375 31.25 L 84.375 38.625 C 76.902344 41.265625 71.898438 48.324219 71.875 56.25 L 71.875 68.75 C 71.875 79.105469 80.269531 87.5 90.625 87.5 L 115.625 87.5 C 125.980469 87.5 134.375 79.105469 134.375 68.75 L 134.375 56.25 C 134.351562 48.324219 129.347656 41.265625 121.875 38.625 Z M 96.875 31.25 C 96.875 27.796875 99.671875 25 103.125 25 C 106.578125 25 109.375 27.796875 109.375 31.25 L 109.375 37.5 L 96.875 37.5 Z M 121.875 68.75 C 121.875 72.203125 119.078125 75 115.625 75 L 90.625 75 C 87.171875 75 84.375 72.203125 84.375 68.75 L 84.375 56.25 C 84.375 52.796875 87.171875 50 90.625 50 L 115.625 50 C 119.078125 50 121.875 52.796875 121.875 56.25 Z M 121.875 68.75 "/>
</g>
</svg>
